<svg xmlns="http://www.w3.org/2000/svg" xmlns:xlink="http://www.w3.org/1999/xlink" width="1920" zoomAndPan="magnify" viewBox="0 0 1440 809.999993" height="1080" preserveAspectRatio="xMidYMid meet" version="1.0"><defs><g/><clipPath id="f89043c33a"><path d="M 6 133.988281 L 592 133.988281 L 592 676 L 6 676 Z M 6 133.988281 " clip-rule="nonzero"/></clipPath></defs><g clip-path="url(#f89043c33a)"><path fill="#774bc4" d="M 341.605469 225.34375 C 333.867188 225.34375 327.539062 219.007812 327.539062 211.265625 C 327.539062 203.523438 333.867188 197.1875 341.605469 197.1875 L 429.867188 197.1875 L 430.804688 197.304688 C 469.722656 202.117188 503.832031 221.121094 528.214844 248.808594 C 552.476562 276.378906 567.011719 312.394531 566.777344 351.582031 C 566.542969 401.675781 550.367188 439.921875 524.226562 467.257812 C 501.839844 490.605469 472.417969 505.855469 439.597656 513.480469 C 448.15625 550.671875 457.882812 582.582031 474.761719 601.941406 C 487.773438 616.839844 503.714844 628.453125 521.179688 636.195312 C 538.761719 644.058594 558.101562 648.046875 577.796875 647.8125 C 585.53125 647.695312 591.859375 653.914062 591.976562 661.65625 C 592.09375 669.398438 585.882812 675.734375 578.148438 675.851562 C 554.351562 676.203125 531.144531 671.277344 509.808594 661.890625 C 488.476562 652.386719 469.253906 638.425781 453.546875 620.476562 C 432.214844 596.074219 421.195312 559.703125 411.699219 518.054688 C 410.410156 518.175781 409.003906 518.292969 407.597656 518.410156 C 401.738281 518.878906 395.40625 519.230469 388.492188 519.347656 L 388.375 519.347656 C 381.691406 519.464844 375.246094 519.230469 368.917969 518.878906 C 353.210938 517.9375 337.269531 515.59375 321.445312 512.074219 C 322.382812 515.007812 323.554688 517.9375 324.84375 520.753906 C 328.476562 528.378906 333.515625 535.417969 339.730469 542.460938 L 346.292969 549.734375 C 348.753906 552.546875 349.457031 556.183594 348.050781 559.585938 C 346.644531 562.988281 343.597656 565.21875 339.847656 565.453125 L 330.117188 565.921875 C 316.871094 566.625 303.863281 564.75 291.671875 560.410156 C 279.480469 556.066406 267.992188 549.382812 258.148438 540.464844 C 248.300781 531.664062 240.449219 520.988281 234.820312 509.140625 C 229.429688 497.761719 226.148438 485.324219 225.445312 472.417969 C 224.507812 471.832031 223.453125 471.128906 222.515625 470.542969 L 222.515625 661.890625 C 222.515625 669.632812 216.183594 675.96875 208.449219 675.96875 C 200.710938 675.96875 194.382812 669.632812 194.382812 661.890625 L 194.382812 449.542969 C 191.6875 447.195312 188.988281 444.964844 186.410156 442.503906 C 153.355469 412 129.210938 374.105469 115.144531 332.691406 C 101.078125 291.277344 97.328125 246.34375 104.945312 201.882812 L 106.9375 190.5 L 118.542969 190.265625 C 260.609375 187.214844 333.28125 237.546875 374.660156 305.589844 C 375.949219 305.238281 377.238281 305.238281 378.644531 305.238281 C 389.664062 305.941406 400.683594 308.523438 410.996094 312.746094 C 421.195312 316.972656 430.804688 322.71875 439.246094 330.109375 C 449.5625 339.027344 457.882812 349.820312 463.863281 361.789062 C 469.839844 373.753906 473.472656 386.894531 474.410156 400.503906 L 475.113281 410.121094 C 475.347656 413.878906 473.589844 417.160156 470.308594 418.921875 C 467.027344 420.800781 463.273438 420.5625 460.226562 418.453125 L 452.257812 412.820312 C 445.339844 408.011719 437.722656 404.140625 429.75 401.324219 C 424.242188 399.445312 418.5 398.039062 412.753906 397.21875 C 420.492188 424.320312 426.234375 451.769531 431.746094 477.933594 L 433.386719 485.675781 C 460.929688 479.222656 485.429688 466.671875 503.597656 447.546875 C 525.046875 425.140625 538.175781 393.347656 538.410156 351.109375 C 538.527344 319.082031 526.6875 289.636719 506.878906 267.109375 C 487.070312 244.703125 459.40625 229.214844 427.875 225.109375 L 341.605469 225.109375 Z M 481.679688 305.707031 L 485.3125 317.089844 L 497.269531 317.089844 L 487.65625 324.128906 L 491.40625 335.507812 L 481.796875 328.46875 L 472.183594 335.507812 L 475.933594 324.128906 L 466.324219 317.089844 L 478.277344 317.089844 Z M 51.378906 171.027344 C 59.699219 171.027344 66.382812 177.714844 66.382812 186.042969 C 66.382812 194.371094 59.699219 201.058594 51.378906 201.058594 C 43.054688 201.058594 36.375 194.371094 36.375 186.042969 C 36.375 177.832031 43.171875 171.027344 51.378906 171.027344 Z M 365.984375 236.371094 L 369.621094 247.753906 L 381.574219 247.753906 L 371.964844 254.792969 L 375.714844 266.171875 L 366.101562 259.132812 L 356.492188 266.171875 L 360.242188 254.792969 L 350.628906 247.753906 L 362.585938 247.753906 Z M 209.503906 133.953125 L 214.777344 150.496094 L 232.125 150.496094 L 218.058594 160.703125 L 223.453125 177.242188 L 209.386719 167.039062 L 195.320312 177.242188 L 200.710938 160.703125 L 186.644531 150.496094 L 203.992188 150.496094 Z M 21.605469 302.660156 L 25.238281 314.039062 L 37.195312 314.039062 L 27.582031 321.078125 L 31.335938 332.457031 L 21.722656 325.417969 L 12.109375 332.457031 L 15.863281 321.078125 L 6.25 314.039062 L 18.207031 314.039062 Z M 95.453125 440.507812 L 105.53125 471.949219 L 138.46875 471.832031 L 111.746094 491.191406 L 121.941406 522.515625 L 95.335938 503.039062 L 68.726562 522.515625 L 78.925781 491.191406 L 52.433594 471.832031 L 85.371094 471.949219 Z M 408.652344 274.855469 C 411.582031 274.855469 413.808594 277.199219 413.808594 280.015625 C 413.808594 282.832031 411.464844 285.175781 408.652344 285.175781 C 405.839844 285.175781 403.378906 282.832031 403.378906 280.015625 C 403.378906 277.199219 405.722656 274.855469 408.652344 274.855469 Z M 301.515625 404.609375 C 304.449219 404.609375 306.792969 406.957031 306.792969 409.769531 C 306.792969 412.703125 304.449219 415.050781 301.515625 415.050781 C 298.585938 415.050781 296.359375 412.703125 296.359375 409.769531 C 296.242188 406.957031 298.585938 404.609375 301.515625 404.609375 Z M 182.308594 292.21875 C 185.238281 292.21875 187.464844 294.5625 187.464844 297.378906 C 187.464844 300.195312 185.121094 302.539062 182.308594 302.539062 C 179.378906 302.539062 177.035156 300.195312 177.035156 297.378906 C 177.035156 294.5625 179.378906 292.21875 182.308594 292.21875 Z M 299.757812 175.132812 C 302.691406 175.132812 304.917969 177.480469 304.917969 180.292969 C 304.917969 183.226562 302.574219 185.457031 299.757812 185.457031 C 296.828125 185.457031 294.601562 183.109375 294.601562 180.292969 C 294.601562 177.480469 296.828125 175.132812 299.757812 175.132812 Z M 142.574219 443.441406 C 145.503906 443.441406 147.730469 445.789062 147.730469 448.722656 C 147.730469 451.652344 145.386719 453.882812 142.574219 453.882812 C 139.757812 453.882812 137.414062 451.535156 137.414062 448.722656 C 137.296875 445.671875 139.640625 443.441406 142.574219 443.441406 Z M 246.074219 290.105469 C 257.328125 290.105469 267.40625 294.679688 274.792969 302.070312 C 282.175781 309.460938 286.75 319.550781 286.75 330.816406 C 286.75 342.078125 282.175781 352.167969 274.792969 359.558594 C 267.40625 366.949219 257.328125 371.523438 246.074219 371.523438 C 234.820312 371.523438 224.742188 366.949219 217.355469 359.558594 C 209.972656 352.167969 205.398438 342.078125 205.398438 330.816406 C 205.398438 319.550781 209.972656 309.460938 217.355469 302.070312 C 224.742188 294.5625 234.9375 290.105469 246.074219 290.105469 Z M 261.664062 315.210938 C 257.679688 311.222656 252.167969 308.757812 246.191406 308.757812 C 240.097656 308.757812 234.585938 311.222656 230.71875 315.210938 C 226.734375 319.199219 224.273438 324.714844 224.273438 330.699219 C 224.273438 336.796875 226.734375 342.3125 230.71875 346.183594 C 234.703125 350.171875 240.214844 352.636719 246.191406 352.636719 C 252.285156 352.636719 257.796875 350.171875 261.664062 346.183594 C 265.648438 342.195312 268.109375 336.679688 268.109375 330.699219 C 267.992188 324.714844 265.53125 319.199219 261.664062 315.210938 Z M 390.601562 335.507812 C 395.640625 346.417969 399.980469 357.5625 403.964844 368.828125 C 404.785156 368.710938 405.722656 368.710938 406.542969 368.710938 C 417.796875 369.296875 428.695312 371.40625 439.128906 374.925781 L 438.894531 374.457031 C 434.558594 365.777344 428.578125 357.914062 421.078125 351.464844 C 414.863281 346.066406 407.949219 341.84375 400.566406 338.792969 C 397.398438 337.386719 394 336.328125 390.601562 335.507812 Z M 291.085938 503.390625 C 284.167969 501.046875 277.371094 498.464844 270.691406 495.648438 C 266.351562 493.769531 261.898438 491.894531 257.679688 489.78125 C 258.5 492.246094 259.554688 494.59375 260.609375 496.9375 C 264.59375 505.269531 270.21875 512.894531 277.253906 519.347656 C 283.933594 525.449219 291.671875 530.023438 299.992188 533.191406 L 299.757812 532.722656 C 295.421875 523.804688 292.492188 514.183594 291.085938 503.390625 Z M 405.371094 490.371094 L 405.839844 490.371094 L 404.433594 483.917969 C 379.464844 365.070312 348.753906 218.65625 131.203125 218.1875 C 126.75 254.207031 130.617188 290.222656 141.988281 323.660156 C 154.527344 360.613281 176.097656 394.519531 205.632812 421.738281 C 227.554688 441.917969 253.574219 457.988281 281.355469 469.722656 C 310.308594 481.804688 341.019531 489.078125 370.792969 490.839844 C 376.886719 491.191406 382.746094 491.308594 388.375 491.308594 C 393.648438 491.308594 399.277344 490.957031 405.371094 490.371094 Z M 405.371094 490.371094 " fill-opacity="1" fill-rule="nonzero"/></g><g fill="#000000" fill-opacity="1"><g transform="translate(677.893268, 248.082599)"><g><path d="M 54.140625 -53.875 L 54.140625 0 L 12.796875 0 L 12.796875 -167.234375 L 73.875 -167.234375 C 99.664062 -167.234375 117.984375 -162.875 128.828125 -154.15625 C 139.671875 -145.445312 145.09375 -130.957031 145.09375 -110.6875 C 145.09375 -97 142.203125 -85.84375 136.421875 -77.21875 C 130.648438 -68.59375 121.894531 -62.320312 110.15625 -58.40625 L 150.96875 0 L 101.359375 0 L 66.6875 -53.875 Z M 103.21875 -110.6875 C 103.21875 -117.800781 101.082031 -122.78125 96.8125 -125.625 C 92.550781 -128.46875 84.90625 -129.890625 73.875 -129.890625 L 54.140625 -129.890625 L 54.140625 -87.21875 L 73.875 -87.21875 C 84.90625 -87.21875 92.550781 -88.953125 96.8125 -92.421875 C 101.082031 -95.890625 103.21875 -101.976562 103.21875 -110.6875 Z M 103.21875 -110.6875 "/></g></g></g><g fill="#000000" fill-opacity="1"><g transform="translate(831.775617, 248.082599)"><g><path d="M 55.484375 2.671875 C 40.546875 2.671875 29.382812 -1.015625 22 -8.390625 C 14.625 -15.773438 10.9375 -26.9375 10.9375 -41.875 L 10.9375 -131.765625 L 50.9375 -131.765625 L 50.9375 -47.203125 C 50.9375 -42.765625 52.269531 -39.566406 54.9375 -37.609375 C 57.601562 -35.648438 61.875 -34.671875 67.75 -34.671875 C 71.125 -34.671875 74.722656 -34.9375 78.546875 -35.46875 C 82.367188 -36.007812 86.238281 -36.8125 90.15625 -37.875 L 90.15625 -131.765625 L 130.15625 -131.765625 L 130.15625 0 L 92.8125 0 L 91.75 -7.203125 L 91.21875 -7.203125 C 84.988281 -4.179688 78.71875 -1.78125 72.40625 0 C 66.101562 1.78125 60.460938 2.671875 55.484375 2.671875 Z M 55.484375 2.671875 "/></g></g></g><g fill="#000000" fill-opacity="1"><g transform="translate(973.390047, 248.082599)"><g><path d="M 51.484375 0 L 11.46875 0 L 11.46875 -131.765625 L 48.8125 -131.765625 L 50.140625 -121.890625 L 50.9375 -121.890625 C 57.519531 -125.984375 63.832031 -129.09375 69.875 -131.21875 C 75.925781 -133.351562 81.707031 -134.421875 87.21875 -134.421875 C 94.507812 -134.421875 100.734375 -133.3125 105.890625 -131.09375 C 111.046875 -128.875 115.132812 -125.539062 118.15625 -121.09375 L 119.21875 -121.09375 C 125.269531 -125.175781 132.070312 -128.414062 139.625 -130.8125 C 147.1875 -133.21875 154.429688 -134.421875 161.359375 -134.421875 C 174.335938 -134.421875 183.984375 -130.863281 190.296875 -123.75 C 196.609375 -116.644531 199.765625 -105.800781 199.765625 -91.21875 L 199.765625 0 L 159.765625 0 L 159.765625 -85.890625 C 159.765625 -90.328125 158.519531 -93.523438 156.03125 -95.484375 C 153.539062 -97.441406 149.628906 -98.421875 144.296875 -98.421875 C 141.453125 -98.421875 138.425781 -98.148438 135.21875 -97.609375 C 132.019531 -97.078125 128.820312 -96.28125 125.625 -95.21875 L 125.625 0 L 85.609375 0 L 85.609375 -85.890625 C 85.609375 -90.328125 84.363281 -93.523438 81.875 -95.484375 C 79.394531 -97.441406 75.484375 -98.421875 70.140625 -98.421875 C 67.296875 -98.421875 64.273438 -98.148438 61.078125 -97.609375 C 57.878906 -97.078125 54.679688 -96.28125 51.484375 -95.21875 Z M 51.484375 0 "/></g></g></g><g fill="#000000" fill-opacity="1"><g transform="translate(1184.078201, 248.082599)"><g><path d="M 136.828125 -65.875 C 136.828125 -41.164062 131.847656 -23.5625 121.890625 -13.0625 C 111.929688 -2.570312 95.21875 2.671875 71.75 2.671875 C 48.28125 2.671875 31.566406 -2.570312 21.609375 -13.0625 C 11.648438 -23.5625 6.671875 -41.164062 6.671875 -65.875 C 6.671875 -90.59375 11.648438 -108.195312 21.609375 -118.6875 C 31.566406 -129.175781 48.28125 -134.421875 71.75 -134.421875 C 95.21875 -134.421875 111.929688 -129.175781 121.890625 -118.6875 C 131.847656 -108.195312 136.828125 -90.59375 136.828125 -65.875 Z M 46.671875 -66.40625 C 46.671875 -52.894531 48.140625 -44.179688 51.078125 -40.265625 C 54.015625 -36.359375 60.90625 -34.40625 71.75 -34.40625 C 82.59375 -34.40625 89.476562 -36.359375 92.40625 -40.265625 C 95.34375 -44.179688 96.8125 -52.894531 96.8125 -66.40625 C 96.8125 -79.925781 95.34375 -88.640625 92.40625 -92.546875 C 89.476562 -96.460938 82.59375 -98.421875 71.75 -98.421875 C 60.90625 -98.421875 54.015625 -96.460938 51.078125 -92.546875 C 48.140625 -88.640625 46.671875 -79.925781 46.671875 -66.40625 Z M 46.671875 -66.40625 "/></g></g></g><g fill="#000000" fill-opacity="1"><g transform="translate(677.893268, 494.965953)"><g><path d="M 43.46875 2.671875 C 29.957031 2.671875 20.046875 -0.707031 13.734375 -7.46875 C 7.421875 -14.226562 4.265625 -24.894531 4.265625 -39.46875 C 4.265625 -54.40625 8.039062 -64.894531 15.59375 -70.9375 C 23.15625 -76.988281 36.179688 -80.015625 54.671875 -80.015625 C 58.941406 -80.015625 63.34375 -79.789062 67.875 -79.34375 C 72.414062 -78.90625 76.375 -78.328125 79.75 -77.609375 L 79.75 -87.21875 C 79.75 -91.488281 77.925781 -94.644531 74.28125 -96.6875 C 70.632812 -98.726562 65.078125 -99.75 57.609375 -99.75 C 49.078125 -99.75 41.476562 -99.523438 34.8125 -99.078125 C 28.144531 -98.640625 22.050781 -97.882812 16.53125 -96.8125 L 16.53125 -129.625 C 23.113281 -131.226562 30.757812 -132.425781 39.46875 -133.21875 C 48.1875 -134.019531 58.320312 -134.421875 69.875 -134.421875 C 86.238281 -134.421875 98.640625 -130.773438 107.078125 -123.484375 C 115.523438 -116.203125 119.75 -105.445312 119.75 -91.21875 L 119.75 0 L 82.421875 0 L 81.078125 -11.203125 L 80.28125 -11.203125 C 74.769531 -6.929688 68.722656 -3.550781 62.140625 -1.0625 C 55.566406 1.425781 49.34375 2.671875 43.46875 2.671875 Z M 60.015625 -53.609375 C 52.898438 -53.609375 48.097656 -52.851562 45.609375 -51.34375 C 43.117188 -49.832031 41.875 -46.675781 41.875 -41.875 C 41.875 -37.425781 42.894531 -34.359375 44.9375 -32.671875 C 46.988281 -30.984375 50.59375 -30.140625 55.75 -30.140625 C 59.65625 -30.140625 63.742188 -30.671875 68.015625 -31.734375 C 72.285156 -32.804688 76.195312 -34.140625 79.75 -35.734375 L 79.75 -52.015625 C 77.613281 -52.546875 74.945312 -52.941406 71.75 -53.203125 C 68.550781 -53.472656 64.640625 -53.609375 60.015625 -53.609375 Z M 60.015625 -53.609375 "/></g></g></g><g fill="#000000" fill-opacity="1"><g transform="translate(808.573218, 494.965953)"><g><path d="M 136.828125 -65.875 C 136.828125 -41.164062 131.847656 -23.5625 121.890625 -13.0625 C 111.929688 -2.570312 95.21875 2.671875 71.75 2.671875 C 48.28125 2.671875 31.566406 -2.570312 21.609375 -13.0625 C 11.648438 -23.5625 6.671875 -41.164062 6.671875 -65.875 C 6.671875 -90.59375 11.648438 -108.195312 21.609375 -118.6875 C 31.566406 -129.175781 48.28125 -134.421875 71.75 -134.421875 C 95.21875 -134.421875 111.929688 -129.175781 121.890625 -118.6875 C 131.847656 -108.195312 136.828125 -90.59375 136.828125 -65.875 Z M 46.671875 -66.40625 C 46.671875 -52.894531 48.140625 -44.179688 51.078125 -40.265625 C 54.015625 -36.359375 60.90625 -34.40625 71.75 -34.40625 C 82.59375 -34.40625 89.476562 -36.359375 92.40625 -40.265625 C 95.34375 -44.179688 96.8125 -52.894531 96.8125 -66.40625 C 96.8125 -79.925781 95.34375 -88.640625 92.40625 -92.546875 C 89.476562 -96.460938 82.59375 -98.421875 71.75 -98.421875 C 60.90625 -98.421875 54.015625 -96.460938 51.078125 -92.546875 C 48.140625 -88.640625 46.671875 -79.925781 46.671875 -66.40625 Z M 46.671875 -66.40625 "/></g></g></g><g fill="#000000" fill-opacity="1"><g transform="translate(677.893268, 741.849307)"><g><path d="M 54.140625 -60.8125 L 54.140625 0 L 12.796875 0 L 12.796875 -167.234375 L 125.625 -167.234375 L 125.625 -129.890625 L 54.140625 -129.890625 L 54.140625 -95.484375 L 115.75 -95.484375 L 115.75 -60.8125 Z M 54.140625 -60.8125 "/></g></g></g><g fill="#000000" fill-opacity="1"><g transform="translate(808.306584, 741.849307)"><g><path d="M 55.484375 2.671875 C 40.546875 2.671875 29.382812 -1.015625 22 -8.390625 C 14.625 -15.773438 10.9375 -26.9375 10.9375 -41.875 L 10.9375 -131.765625 L 50.9375 -131.765625 L 50.9375 -47.203125 C 50.9375 -42.765625 52.269531 -39.566406 54.9375 -37.609375 C 57.601562 -35.648438 61.875 -34.671875 67.75 -34.671875 C 71.125 -34.671875 74.722656 -34.9375 78.546875 -35.46875 C 82.367188 -36.007812 86.238281 -36.8125 90.15625 -37.875 L 90.15625 -131.765625 L 130.15625 -131.765625 L 130.15625 0 L 92.8125 0 L 91.75 -7.203125 L 91.21875 -7.203125 C 84.988281 -4.179688 78.71875 -1.78125 72.40625 0 C 66.101562 1.78125 60.460938 2.671875 55.484375 2.671875 Z M 55.484375 2.671875 "/></g></g></g><g fill="#000000" fill-opacity="1"><g transform="translate(949.921014, 741.849307)"><g><path d="M 20 -98.421875 L 4.53125 -98.421875 L 4.53125 -131.765625 L 21.34375 -131.765625 L 26.40625 -162.4375 L 60.015625 -162.4375 L 60.015625 -131.765625 L 97.359375 -131.765625 L 97.359375 -98.421875 L 60.015625 -98.421875 L 60.015625 -47.203125 C 60.015625 -42.222656 61.300781 -38.890625 63.875 -37.203125 C 66.457031 -35.515625 71.570312 -34.671875 79.21875 -34.671875 C 81.882812 -34.671875 85.171875 -34.890625 89.078125 -35.328125 C 92.992188 -35.773438 96.285156 -36.269531 98.953125 -36.8125 L 98.953125 -2.671875 C 96.109375 -1.421875 91.707031 -0.21875 85.75 0.9375 C 79.789062 2.09375 74.5 2.671875 69.875 2.671875 C 52.09375 2.671875 39.332031 -1.101562 31.59375 -8.65625 C 23.863281 -16.21875 20 -28.535156 20 -45.609375 Z M 20 -98.421875 "/></g></g></g><g fill="#000000" fill-opacity="1"><g transform="translate(1051.531344, 741.849307)"><g><path d="M 55.484375 2.671875 C 40.546875 2.671875 29.382812 -1.015625 22 -8.390625 C 14.625 -15.773438 10.9375 -26.9375 10.9375 -41.875 L 10.9375 -131.765625 L 50.9375 -131.765625 L 50.9375 -47.203125 C 50.9375 -42.765625 52.269531 -39.566406 54.9375 -37.609375 C 57.601562 -35.648438 61.875 -34.671875 67.75 -34.671875 C 71.125 -34.671875 74.722656 -34.9375 78.546875 -35.46875 C 82.367188 -36.007812 86.238281 -36.8125 90.15625 -37.875 L 90.15625 -131.765625 L 130.15625 -131.765625 L 130.15625 0 L 92.8125 0 L 91.75 -7.203125 L 91.21875 -7.203125 C 84.988281 -4.179688 78.71875 -1.78125 72.40625 0 C 66.101562 1.78125 60.460938 2.671875 55.484375 2.671875 Z M 55.484375 2.671875 "/></g></g></g><g fill="#000000" fill-opacity="1"><g transform="translate(1193.145774, 741.849307)"><g><path d="M 51.484375 0 L 11.46875 0 L 11.46875 -131.765625 L 48.8125 -131.765625 L 50.140625 -121.625 L 50.671875 -121.625 C 57.078125 -125.53125 63.613281 -128.503906 70.28125 -130.546875 C 76.945312 -132.597656 83.210938 -133.625 89.078125 -133.625 L 91.21875 -133.625 L 91.21875 -94.953125 C 89.613281 -95.304688 87.878906 -95.523438 86.015625 -95.609375 C 84.148438 -95.703125 81.796875 -95.75 78.953125 -95.75 C 73.796875 -95.75 68.90625 -95.4375 64.28125 -94.8125 C 59.65625 -94.195312 55.390625 -93.265625 51.484375 -92.015625 Z M 51.484375 0 "/></g></g></g><g fill="#000000" fill-opacity="1"><g transform="translate(1287.822072, 741.849307)"><g><path d="M 136.828125 -65.875 C 136.828125 -41.164062 131.847656 -23.5625 121.890625 -13.0625 C 111.929688 -2.570312 95.21875 2.671875 71.75 2.671875 C 48.28125 2.671875 31.566406 -2.570312 21.609375 -13.0625 C 11.648438 -23.5625 6.671875 -41.164062 6.671875 -65.875 C 6.671875 -90.59375 11.648438 -108.195312 21.609375 -118.6875 C 31.566406 -129.175781 48.28125 -134.421875 71.75 -134.421875 C 95.21875 -134.421875 111.929688 -129.175781 121.890625 -118.6875 C 131.847656 -108.195312 136.828125 -90.59375 136.828125 -65.875 Z M 46.671875 -66.40625 C 46.671875 -52.894531 48.140625 -44.179688 51.078125 -40.265625 C 54.015625 -36.359375 60.90625 -34.40625 71.75 -34.40625 C 82.59375 -34.40625 89.476562 -36.359375 92.40625 -40.265625 C 95.34375 -44.179688 96.8125 -52.894531 96.8125 -66.40625 C 96.8125 -79.925781 95.34375 -88.640625 92.40625 -92.546875 C 89.476562 -96.460938 82.59375 -98.421875 71.75 -98.421875 C 60.90625 -98.421875 54.015625 -96.460938 51.078125 -92.546875 C 48.140625 -88.640625 46.671875 -79.925781 46.671875 -66.40625 Z M 46.671875 -66.40625 "/></g></g></g></svg>