<svg xmlns="http://www.w3.org/2000/svg" xmlns:xlink="http://www.w3.org/1999/xlink" width="500" zoomAndPan="magnify" viewBox="0 0 375 213" height="284" preserveAspectRatio="xMidYMid meet" version="1.0"><defs><g/><clipPath id="40437b83f4"><path d="M 0 35.183594 L 153.75 35.183594 L 153.75 177.652344 L 0 177.652344 Z M 0 35.183594 " clip-rule="nonzero"/></clipPath></defs><g clip-path="url(#40437b83f4)"><path fill="#774bc4" d="M 88 59.171875 C 85.972656 59.171875 84.3125 57.507812 84.3125 55.472656 C 84.3125 53.4375 85.972656 51.773438 88 51.773438 L 111.144531 51.773438 L 111.390625 51.800781 C 121.59375 53.066406 130.539062 58.0625 136.929688 65.335938 C 143.292969 72.582031 147.105469 82.046875 147.042969 92.34375 C 146.980469 105.507812 142.738281 115.558594 135.886719 122.742188 C 130.015625 128.878906 122.300781 132.886719 113.695312 134.890625 C 115.9375 144.664062 118.488281 153.050781 122.914062 158.136719 C 126.328125 162.054688 130.507812 165.105469 135.085938 167.140625 C 139.699219 169.207031 144.769531 170.253906 149.933594 170.191406 C 151.960938 170.160156 153.621094 171.796875 153.652344 173.832031 C 153.683594 175.867188 152.054688 177.53125 150.023438 177.5625 C 143.785156 177.652344 137.699219 176.359375 132.105469 173.890625 C 126.511719 171.394531 121.472656 167.726562 117.351562 163.007812 C 111.757812 156.597656 108.871094 147.039062 106.378906 136.09375 C 106.042969 136.125 105.671875 136.15625 105.304688 136.1875 C 103.769531 136.308594 102.109375 136.402344 100.296875 136.433594 L 100.265625 136.433594 C 98.511719 136.464844 96.820312 136.402344 95.164062 136.308594 C 91.042969 136.0625 86.863281 135.445312 82.714844 134.519531 C 82.960938 135.292969 83.269531 136.0625 83.605469 136.804688 C 84.558594 138.808594 85.878906 140.65625 87.507812 142.507812 L 89.230469 144.417969 C 89.875 145.15625 90.058594 146.113281 89.691406 147.007812 C 89.324219 147.902344 88.523438 148.488281 87.539062 148.550781 L 84.988281 148.671875 C 81.515625 148.859375 78.105469 148.363281 74.90625 147.222656 C 71.710938 146.082031 68.699219 144.324219 66.117188 141.984375 C 63.535156 139.671875 61.476562 136.863281 60 133.75 C 58.585938 130.761719 57.726562 127.492188 57.542969 124.101562 C 57.296875 123.945312 57.019531 123.761719 56.773438 123.605469 L 56.773438 173.890625 C 56.773438 175.925781 55.113281 177.59375 53.085938 177.59375 C 51.058594 177.59375 49.398438 175.925781 49.398438 173.890625 L 49.398438 118.089844 C 48.691406 117.472656 47.984375 116.886719 47.308594 116.238281 C 38.640625 108.222656 32.308594 98.265625 28.621094 87.382812 C 24.933594 76.496094 23.949219 64.691406 25.945312 53.003906 L 26.46875 50.015625 L 29.511719 49.953125 C 66.761719 49.152344 85.820312 62.378906 96.667969 80.257812 C 97.007812 80.167969 97.34375 80.167969 97.714844 80.167969 C 100.601562 80.351562 103.492188 81.03125 106.195312 82.140625 C 108.871094 83.25 111.390625 84.761719 113.601562 86.703125 C 116.308594 89.046875 118.488281 91.882812 120.058594 95.027344 C 121.625 98.171875 122.578125 101.625 122.824219 105.203125 L 123.007812 107.730469 C 123.070312 108.714844 122.609375 109.578125 121.75 110.042969 C 120.886719 110.535156 119.902344 110.472656 119.105469 109.917969 L 117.015625 108.4375 C 115.203125 107.175781 113.203125 106.15625 111.113281 105.417969 C 109.667969 104.921875 108.164062 104.554688 106.65625 104.339844 C 108.6875 111.460938 110.191406 118.675781 111.636719 125.550781 L 112.066406 127.585938 C 119.289062 125.890625 125.714844 122.589844 130.476562 117.566406 C 136.101562 111.675781 139.542969 103.320312 139.605469 92.222656 C 139.636719 83.804688 136.53125 76.066406 131.335938 70.148438 C 126.144531 64.257812 118.890625 60.1875 110.621094 59.109375 L 88 59.109375 Z M 124.730469 80.289062 L 125.683594 83.28125 L 128.816406 83.28125 L 126.296875 85.128906 L 127.28125 88.121094 L 124.761719 86.269531 L 122.238281 88.121094 L 123.222656 85.128906 L 120.703125 83.28125 L 123.839844 83.28125 Z M 11.902344 44.894531 C 14.082031 44.894531 15.835938 46.652344 15.835938 48.84375 C 15.835938 51.03125 14.082031 52.789062 11.902344 52.789062 C 9.71875 52.789062 7.96875 51.03125 7.96875 48.84375 C 7.96875 46.683594 9.75 44.894531 11.902344 44.894531 Z M 94.394531 62.070312 L 95.347656 65.058594 L 98.480469 65.058594 L 95.960938 66.910156 L 96.945312 69.898438 L 94.425781 68.050781 L 91.90625 69.898438 L 92.886719 66.910156 L 90.367188 65.058594 L 93.503906 65.058594 Z M 53.363281 35.152344 L 54.746094 39.5 L 59.292969 39.5 L 55.605469 42.183594 L 57.019531 46.53125 L 53.332031 43.847656 L 49.644531 46.53125 L 51.058594 42.183594 L 47.371094 39.5 L 51.917969 39.5 Z M 4.09375 79.488281 L 5.046875 82.480469 L 8.183594 82.480469 L 5.660156 84.328125 L 6.644531 87.320312 L 4.125 85.46875 L 1.605469 87.320312 L 2.589844 84.328125 L 0.0664062 82.480469 L 3.203125 82.480469 Z M 23.457031 115.714844 L 26.101562 123.976562 L 34.738281 123.945312 L 27.730469 129.035156 L 30.402344 137.265625 L 23.425781 132.148438 L 16.449219 137.265625 L 19.125 129.035156 L 12.179688 123.945312 L 20.8125 123.976562 Z M 105.582031 72.179688 C 106.351562 72.179688 106.933594 72.796875 106.933594 73.539062 C 106.933594 74.277344 106.320312 74.894531 105.582031 74.894531 C 104.84375 74.894531 104.199219 74.277344 104.199219 73.539062 C 104.199219 72.796875 104.8125 72.179688 105.582031 72.179688 Z M 77.488281 106.28125 C 78.257812 106.28125 78.871094 106.898438 78.871094 107.636719 C 78.871094 108.40625 78.257812 109.023438 77.488281 109.023438 C 76.722656 109.023438 76.136719 108.40625 76.136719 107.636719 C 76.105469 106.898438 76.722656 106.28125 77.488281 106.28125 Z M 46.230469 76.746094 C 47 76.746094 47.585938 77.359375 47.585938 78.101562 C 47.585938 78.839844 46.96875 79.457031 46.230469 79.457031 C 45.464844 79.457031 44.847656 78.839844 44.847656 78.101562 C 44.847656 77.359375 45.464844 76.746094 46.230469 76.746094 Z M 77.027344 45.976562 C 77.796875 45.976562 78.382812 46.59375 78.382812 47.332031 C 78.382812 48.101562 77.765625 48.6875 77.027344 48.6875 C 76.261719 48.6875 75.675781 48.070312 75.675781 47.332031 C 75.675781 46.59375 76.261719 45.976562 77.027344 45.976562 Z M 35.8125 116.484375 C 36.582031 116.484375 37.164062 117.101562 37.164062 117.871094 C 37.164062 118.644531 36.550781 119.230469 35.8125 119.230469 C 35.074219 119.230469 34.460938 118.613281 34.460938 117.871094 C 34.429688 117.070312 35.042969 116.484375 35.8125 116.484375 Z M 62.953125 76.191406 C 65.902344 76.191406 68.546875 77.390625 70.480469 79.335938 C 72.417969 81.277344 73.617188 83.929688 73.617188 86.886719 C 73.617188 89.847656 72.417969 92.5 70.480469 94.441406 C 68.546875 96.382812 65.902344 97.585938 62.953125 97.585938 C 60 97.585938 57.359375 96.382812 55.421875 94.441406 C 53.484375 92.5 52.285156 89.847656 52.285156 86.886719 C 52.285156 83.929688 53.484375 81.277344 55.421875 79.335938 C 57.359375 77.359375 60.03125 76.191406 62.953125 76.191406 Z M 67.039062 82.789062 C 65.996094 81.738281 64.550781 81.089844 62.984375 81.089844 C 61.382812 81.089844 59.941406 81.738281 58.925781 82.789062 C 57.878906 83.835938 57.234375 85.285156 57.234375 86.855469 C 57.234375 88.460938 57.878906 89.910156 58.925781 90.925781 C 59.972656 91.976562 61.414062 92.621094 62.984375 92.621094 C 64.582031 92.621094 66.027344 91.976562 67.039062 90.925781 C 68.085938 89.878906 68.730469 88.429688 68.730469 86.855469 C 68.699219 85.285156 68.054688 83.835938 67.039062 82.789062 Z M 100.847656 88.121094 C 102.167969 90.988281 103.308594 93.917969 104.351562 96.878906 C 104.566406 96.847656 104.8125 96.847656 105.027344 96.847656 C 107.980469 97 110.835938 97.554688 113.574219 98.480469 L 113.511719 98.355469 C 112.375 96.074219 110.804688 94.007812 108.839844 92.3125 C 107.210938 90.894531 105.398438 89.785156 103.460938 88.984375 C 102.632812 88.613281 101.738281 88.335938 100.847656 88.121094 Z M 74.753906 132.238281 C 72.941406 131.625 71.160156 130.945312 69.40625 130.207031 C 68.269531 129.710938 67.101562 129.21875 65.996094 128.664062 C 66.210938 129.3125 66.488281 129.925781 66.761719 130.542969 C 67.808594 132.734375 69.285156 134.738281 71.128906 136.433594 C 72.878906 138.035156 74.90625 139.238281 77.089844 140.070312 L 77.027344 139.949219 C 75.890625 137.605469 75.125 135.078125 74.753906 132.238281 Z M 104.722656 128.816406 L 104.84375 128.816406 L 104.476562 127.121094 C 97.929688 95.890625 89.875 57.414062 32.832031 57.289062 C 31.664062 66.753906 32.679688 76.21875 35.660156 85.007812 C 38.949219 94.71875 44.601562 103.628906 52.347656 110.78125 C 58.097656 116.085938 64.917969 120.308594 72.203125 123.390625 C 79.792969 126.566406 87.847656 128.480469 95.652344 128.941406 C 97.253906 129.035156 98.789062 129.0625 100.265625 129.0625 C 101.648438 129.0625 103.121094 128.972656 104.722656 128.816406 Z M 104.722656 128.816406 " fill-opacity="1" fill-rule="nonzero"/></g><g fill="#ffffff" fill-opacity="1"><g transform="translate(176.443747, 65.140727)"><g><path d="M 14.21875 -14.140625 L 14.21875 0 L 3.359375 0 L 3.359375 -43.90625 L 19.40625 -43.90625 C 26.164062 -43.90625 30.96875 -42.757812 33.8125 -40.46875 C 36.664062 -38.1875 38.09375 -34.382812 38.09375 -29.0625 C 38.09375 -25.46875 37.332031 -22.535156 35.8125 -20.265625 C 34.300781 -18.003906 32.003906 -16.363281 28.921875 -15.34375 L 39.640625 0 L 26.609375 0 L 17.5 -14.140625 Z M 27.109375 -29.0625 C 27.109375 -30.925781 26.546875 -32.234375 25.421875 -32.984375 C 24.296875 -33.734375 22.289062 -34.109375 19.40625 -34.109375 L 14.21875 -34.109375 L 14.21875 -22.90625 L 19.40625 -22.90625 C 22.289062 -22.90625 24.296875 -23.359375 25.421875 -24.265625 C 26.546875 -25.171875 27.109375 -26.769531 27.109375 -29.0625 Z M 27.109375 -29.0625 "/></g></g></g><g fill="#ffffff" fill-opacity="1"><g transform="translate(216.849674, 65.140727)"><g><path d="M 14.5625 0.703125 C 10.644531 0.703125 7.71875 -0.265625 5.78125 -2.203125 C 3.84375 -4.140625 2.875 -7.070312 2.875 -11 L 2.875 -34.59375 L 13.375 -34.59375 L 13.375 -12.390625 C 13.375 -11.222656 13.722656 -10.382812 14.421875 -9.875 C 15.128906 -9.363281 16.25 -9.109375 17.78125 -9.109375 C 18.675781 -9.109375 19.625 -9.175781 20.625 -9.3125 C 21.625 -9.457031 22.640625 -9.664062 23.671875 -9.9375 L 23.671875 -34.59375 L 34.171875 -34.59375 L 34.171875 0 L 24.375 0 L 24.09375 -1.890625 L 23.953125 -1.890625 C 22.316406 -1.097656 20.671875 -0.46875 19.015625 0 C 17.359375 0.46875 15.875 0.703125 14.5625 0.703125 Z M 14.5625 0.703125 "/></g></g></g><g fill="#ffffff" fill-opacity="1"><g transform="translate(254.03433, 65.140727)"><g><path d="M 13.515625 0 L 3.015625 0 L 3.015625 -34.59375 L 12.8125 -34.59375 L 13.171875 -32 L 13.375 -32 C 15.101562 -33.070312 16.757812 -33.890625 18.34375 -34.453125 C 19.9375 -35.015625 21.457031 -35.296875 22.90625 -35.296875 C 24.8125 -35.296875 26.441406 -35.003906 27.796875 -34.421875 C 29.148438 -33.835938 30.226562 -32.960938 31.03125 -31.796875 L 31.296875 -31.796875 C 32.890625 -32.867188 34.675781 -33.71875 36.65625 -34.34375 C 38.644531 -34.976562 40.550781 -35.296875 42.375 -35.296875 C 45.78125 -35.296875 48.3125 -34.359375 49.96875 -32.484375 C 51.625 -30.617188 52.453125 -27.773438 52.453125 -23.953125 L 52.453125 0 L 41.953125 0 L 41.953125 -22.546875 C 41.953125 -23.710938 41.625 -24.550781 40.96875 -25.0625 C 40.3125 -25.582031 39.285156 -25.84375 37.890625 -25.84375 C 37.140625 -25.84375 36.34375 -25.769531 35.5 -25.625 C 34.664062 -25.488281 33.828125 -25.28125 32.984375 -25 L 32.984375 0 L 22.484375 0 L 22.484375 -22.546875 C 22.484375 -23.710938 22.15625 -24.550781 21.5 -25.0625 C 20.84375 -25.582031 19.816406 -25.84375 18.421875 -25.84375 C 17.671875 -25.84375 16.875 -25.769531 16.03125 -25.625 C 15.195312 -25.488281 14.359375 -25.28125 13.515625 -25 Z M 13.515625 0 "/></g></g></g><g fill="#ffffff" fill-opacity="1"><g transform="translate(309.35614, 65.140727)"><g><path d="M 35.921875 -17.296875 C 35.921875 -10.804688 34.613281 -6.179688 32 -3.421875 C 29.382812 -0.671875 25 0.703125 18.84375 0.703125 C 12.675781 0.703125 8.285156 -0.671875 5.671875 -3.421875 C 3.054688 -6.179688 1.75 -10.804688 1.75 -17.296875 C 1.75 -23.785156 3.054688 -28.40625 5.671875 -31.15625 C 8.285156 -33.914062 12.675781 -35.296875 18.84375 -35.296875 C 25 -35.296875 29.382812 -33.914062 32 -31.15625 C 34.613281 -28.40625 35.921875 -23.785156 35.921875 -17.296875 Z M 12.25 -17.4375 C 12.25 -13.882812 12.632812 -11.59375 13.40625 -10.5625 C 14.175781 -9.539062 15.988281 -9.03125 18.84375 -9.03125 C 21.6875 -9.03125 23.492188 -9.539062 24.265625 -10.5625 C 25.035156 -11.59375 25.421875 -13.882812 25.421875 -17.4375 C 25.421875 -20.988281 25.035156 -23.273438 24.265625 -24.296875 C 23.492188 -25.328125 21.6875 -25.84375 18.84375 -25.84375 C 15.988281 -25.84375 14.175781 -25.328125 13.40625 -24.296875 C 12.632812 -23.273438 12.25 -20.988281 12.25 -17.4375 Z M 12.25 -17.4375 "/></g></g></g><g fill="#ffffff" fill-opacity="1"><g transform="translate(176.443747, 129.966555)"><g><path d="M 11.421875 0.703125 C 7.867188 0.703125 5.265625 -0.179688 3.609375 -1.953125 C 1.953125 -3.734375 1.125 -6.535156 1.125 -10.359375 C 1.125 -14.285156 2.113281 -17.039062 4.09375 -18.625 C 6.082031 -20.21875 9.503906 -21.015625 14.359375 -21.015625 C 15.472656 -21.015625 16.625 -20.953125 17.8125 -20.828125 C 19.007812 -20.710938 20.050781 -20.5625 20.9375 -20.375 L 20.9375 -22.90625 C 20.9375 -24.019531 20.457031 -24.84375 19.5 -25.375 C 18.539062 -25.914062 17.082031 -26.1875 15.125 -26.1875 C 12.882812 -26.1875 10.890625 -26.128906 9.140625 -26.015625 C 7.390625 -25.898438 5.789062 -25.703125 4.34375 -25.421875 L 4.34375 -34.03125 C 6.070312 -34.457031 8.078125 -34.773438 10.359375 -34.984375 C 12.648438 -35.191406 15.3125 -35.296875 18.34375 -35.296875 C 22.644531 -35.296875 25.898438 -34.335938 28.109375 -32.421875 C 30.328125 -30.503906 31.4375 -27.679688 31.4375 -23.953125 L 31.4375 0 L 21.640625 0 L 21.296875 -2.9375 L 21.078125 -2.9375 C 19.628906 -1.820312 18.039062 -0.9375 16.3125 -0.28125 C 14.582031 0.375 12.953125 0.703125 11.421875 0.703125 Z M 15.75 -14.078125 C 13.882812 -14.078125 12.625 -13.878906 11.96875 -13.484375 C 11.320312 -13.085938 11 -12.257812 11 -11 C 11 -9.832031 11.265625 -9.023438 11.796875 -8.578125 C 12.335938 -8.128906 13.285156 -7.90625 14.640625 -7.90625 C 15.660156 -7.90625 16.726562 -8.046875 17.84375 -8.328125 C 18.96875 -8.609375 20 -8.960938 20.9375 -9.390625 L 20.9375 -13.65625 C 20.375 -13.789062 19.671875 -13.894531 18.828125 -13.96875 C 17.992188 -14.039062 16.96875 -14.078125 15.75 -14.078125 Z M 15.75 -14.078125 "/></g></g></g><g fill="#ffffff" fill-opacity="1"><g transform="translate(210.757263, 129.966555)"><g><path d="M 35.921875 -17.296875 C 35.921875 -10.804688 34.613281 -6.179688 32 -3.421875 C 29.382812 -0.671875 25 0.703125 18.84375 0.703125 C 12.675781 0.703125 8.285156 -0.671875 5.671875 -3.421875 C 3.054688 -6.179688 1.75 -10.804688 1.75 -17.296875 C 1.75 -23.785156 3.054688 -28.40625 5.671875 -31.15625 C 8.285156 -33.914062 12.675781 -35.296875 18.84375 -35.296875 C 25 -35.296875 29.382812 -33.914062 32 -31.15625 C 34.613281 -28.40625 35.921875 -23.785156 35.921875 -17.296875 Z M 12.25 -17.4375 C 12.25 -13.882812 12.632812 -11.59375 13.40625 -10.5625 C 14.175781 -9.539062 15.988281 -9.03125 18.84375 -9.03125 C 21.6875 -9.03125 23.492188 -9.539062 24.265625 -10.5625 C 25.035156 -11.59375 25.421875 -13.882812 25.421875 -17.4375 C 25.421875 -20.988281 25.035156 -23.273438 24.265625 -24.296875 C 23.492188 -25.328125 21.6875 -25.84375 18.84375 -25.84375 C 15.988281 -25.84375 14.175781 -25.328125 13.40625 -24.296875 C 12.632812 -23.273438 12.25 -20.988281 12.25 -17.4375 Z M 12.25 -17.4375 "/></g></g></g><g fill="#ffffff" fill-opacity="1"><g transform="translate(176.443747, 194.792383)"><g><path d="M 14.21875 -15.96875 L 14.21875 0 L 3.359375 0 L 3.359375 -43.90625 L 32.984375 -43.90625 L 32.984375 -34.109375 L 14.21875 -34.109375 L 14.21875 -25.078125 L 30.390625 -25.078125 L 30.390625 -15.96875 Z M 14.21875 -15.96875 "/></g></g></g><g fill="#ffffff" fill-opacity="1"><g transform="translate(210.687251, 194.792383)"><g><path d="M 14.5625 0.703125 C 10.644531 0.703125 7.71875 -0.265625 5.78125 -2.203125 C 3.84375 -4.140625 2.875 -7.070312 2.875 -11 L 2.875 -34.59375 L 13.375 -34.59375 L 13.375 -12.390625 C 13.375 -11.222656 13.722656 -10.382812 14.421875 -9.875 C 15.128906 -9.363281 16.25 -9.109375 17.78125 -9.109375 C 18.675781 -9.109375 19.625 -9.175781 20.625 -9.3125 C 21.625 -9.457031 22.640625 -9.664062 23.671875 -9.9375 L 23.671875 -34.59375 L 34.171875 -34.59375 L 34.171875 0 L 24.375 0 L 24.09375 -1.890625 L 23.953125 -1.890625 C 22.316406 -1.097656 20.671875 -0.46875 19.015625 0 C 17.359375 0.46875 15.875 0.703125 14.5625 0.703125 Z M 14.5625 0.703125 "/></g></g></g><g fill="#ffffff" fill-opacity="1"><g transform="translate(247.871908, 194.792383)"><g><path d="M 5.25 -25.84375 L 1.1875 -25.84375 L 1.1875 -34.59375 L 5.609375 -34.59375 L 6.9375 -42.65625 L 15.75 -42.65625 L 15.75 -34.59375 L 25.5625 -34.59375 L 25.5625 -25.84375 L 15.75 -25.84375 L 15.75 -12.390625 C 15.75 -11.085938 16.085938 -10.210938 16.765625 -9.765625 C 17.441406 -9.328125 18.785156 -9.109375 20.796875 -9.109375 C 21.492188 -9.109375 22.359375 -9.164062 23.390625 -9.28125 C 24.421875 -9.394531 25.285156 -9.523438 25.984375 -9.671875 L 25.984375 -0.703125 C 25.234375 -0.367188 24.078125 -0.0507812 22.515625 0.25 C 20.953125 0.550781 19.5625 0.703125 18.34375 0.703125 C 13.675781 0.703125 10.328125 -0.285156 8.296875 -2.265625 C 6.265625 -4.253906 5.25 -7.488281 5.25 -11.96875 Z M 5.25 -25.84375 "/></g></g></g><g fill="#ffffff" fill-opacity="1"><g transform="translate(274.552418, 194.792383)"><g><path d="M 14.5625 0.703125 C 10.644531 0.703125 7.71875 -0.265625 5.78125 -2.203125 C 3.84375 -4.140625 2.875 -7.070312 2.875 -11 L 2.875 -34.59375 L 13.375 -34.59375 L 13.375 -12.390625 C 13.375 -11.222656 13.722656 -10.382812 14.421875 -9.875 C 15.128906 -9.363281 16.25 -9.109375 17.78125 -9.109375 C 18.675781 -9.109375 19.625 -9.175781 20.625 -9.3125 C 21.625 -9.457031 22.640625 -9.664062 23.671875 -9.9375 L 23.671875 -34.59375 L 34.171875 -34.59375 L 34.171875 0 L 24.375 0 L 24.09375 -1.890625 L 23.953125 -1.890625 C 22.316406 -1.097656 20.671875 -0.46875 19.015625 0 C 17.359375 0.46875 15.875 0.703125 14.5625 0.703125 Z M 14.5625 0.703125 "/></g></g></g><g fill="#ffffff" fill-opacity="1"><g transform="translate(311.737074, 194.792383)"><g><path d="M 13.515625 0 L 3.015625 0 L 3.015625 -34.59375 L 12.8125 -34.59375 L 13.171875 -31.9375 L 13.3125 -31.9375 C 14.988281 -32.957031 16.703125 -33.734375 18.453125 -34.265625 C 20.203125 -34.804688 21.847656 -35.078125 23.390625 -35.078125 L 23.953125 -35.078125 L 23.953125 -24.9375 C 23.535156 -25.03125 23.078125 -25.085938 22.578125 -25.109375 C 22.085938 -25.128906 21.472656 -25.140625 20.734375 -25.140625 C 19.378906 -25.140625 18.09375 -25.054688 16.875 -24.890625 C 15.664062 -24.734375 14.546875 -24.488281 13.515625 -24.15625 Z M 13.515625 0 "/></g></g></g><g fill="#ffffff" fill-opacity="1"><g transform="translate(336.596869, 194.792383)"><g><path d="M 35.921875 -17.296875 C 35.921875 -10.804688 34.613281 -6.179688 32 -3.421875 C 29.382812 -0.671875 25 0.703125 18.84375 0.703125 C 12.675781 0.703125 8.285156 -0.671875 5.671875 -3.421875 C 3.054688 -6.179688 1.75 -10.804688 1.75 -17.296875 C 1.75 -23.785156 3.054688 -28.40625 5.671875 -31.15625 C 8.285156 -33.914062 12.675781 -35.296875 18.84375 -35.296875 C 25 -35.296875 29.382812 -33.914062 32 -31.15625 C 34.613281 -28.40625 35.921875 -23.785156 35.921875 -17.296875 Z M 12.25 -17.4375 C 12.25 -13.882812 12.632812 -11.59375 13.40625 -10.5625 C 14.175781 -9.539062 15.988281 -9.03125 18.84375 -9.03125 C 21.6875 -9.03125 23.492188 -9.539062 24.265625 -10.5625 C 25.035156 -11.59375 25.421875 -13.882812 25.421875 -17.4375 C 25.421875 -20.988281 25.035156 -23.273438 24.265625 -24.296875 C 23.492188 -25.328125 21.6875 -25.84375 18.84375 -25.84375 C 15.988281 -25.84375 14.175781 -25.328125 13.40625 -24.296875 C 12.632812 -23.273438 12.25 -20.988281 12.25 -17.4375 Z M 12.25 -17.4375 "/></g></g></g></svg>