<svg version="1.1" id="Capa_1" xmlns="http://www.w3.org/2000/svg" xmlns:xlink="http://www.w3.org/1999/xlink" x="0px" y="0px" viewBox="0 0 512 512" style="enable-background:new 0 0 512 512;" xml:space="preserve">
<g id="XMLID_106_">
	<path id="XMLID_107_" d="M494.5,69.761H217.331c-4.142,0-7.5,3.357-7.5,7.5s3.358,7.5,7.5,7.5H494.5c1.378,0,2.5,1.121,2.5,2.5
		v315.263c0,13.628-11.087,24.715-24.715,24.715h-60.955c-4.142,0-7.5,3.357-7.5,7.5s3.358,7.5,7.5,7.5h60.955
		c21.899,0,39.715-17.816,39.715-39.715V87.261C512,77.612,504.149,69.761,494.5,69.761z"></path>
	<path id="XMLID_108_" d="M378.669,427.239H70.774c5.415-6.789,8.654-15.383,8.654-24.715V278.855c0-4.143-3.358-7.5-7.5-7.5
		s-7.5,3.357-7.5,7.5v123.669c0,13.599-11.059,24.678-24.657,24.714c-0.02,0-0.04-0.003-0.06-0.003
		C26.085,427.235,15,416.15,15,402.524V162.062c0-1.379,1.122-2.5,2.5-2.5h46.929v86.633c0,4.143,3.358,7.5,7.5,7.5
		s7.5-3.357,7.5-7.5V87.261c0-1.379,1.122-2.5,2.5-2.5h102.741c4.142,0,7.5-3.357,7.5-7.5s-3.358-7.5-7.5-7.5H81.929
		c-9.649,0-17.5,7.851-17.5,17.5v57.301H17.5c-9.649,0-17.5,7.851-17.5,17.5v240.462c0,21.869,17.77,39.664,39.63,39.709
		c0.04,0,339.04,0.006,339.04,0.006c4.142,0,7.5-3.357,7.5-7.5S382.812,427.239,378.669,427.239z"></path>
	<path id="XMLID_109_" d="M288.853,115.679H127.099c-9.649,0-17.5,7.851-17.5,17.5v82.807c0,0.007,0,0.014,0,0.014l0,19.136
		c0,9.649,7.851,17.5,17.5,17.5h161.754c9.649,0,17.5-7.851,17.5-17.5v-39.091c0-0.007,0-0.014,0-0.021v-62.845
		C306.353,123.53,298.502,115.679,288.853,115.679z M127.099,130.679h161.754c1.378,0,2.5,1.121,2.5,2.5v48.53l-35.567-24.457
		c-5.529-3.8-12.985-3.116-17.728,1.628l-45.98,45.98l-21.193-21.196c-4.744-4.744-12.199-5.43-17.729-1.628l-28.557,19.635v-68.493
		C124.599,131.8,125.72,130.679,127.099,130.679z M127.099,237.636c-1.378,0-2.5-1.121-2.5-2.5v-15.261l36.314-24.969l42.726,42.73
		H127.099z M288.853,237.636H224.85l-22.166-22.169l45.344-45.344l43.324,29.79v35.223
		C291.353,236.515,290.231,237.636,288.853,237.636z"></path>
	<path id="XMLID_114_" d="M109.599,293.051c0,4.143,3.358,7.5,7.5,7.5H445.92c4.142,0,7.5-3.357,7.5-7.5s-3.358-7.5-7.5-7.5H117.099
		C112.957,285.551,109.599,288.909,109.599,293.051z"></path>
	<path id="XMLID_115_" d="M445.92,314.622H117.099c-4.142,0-7.5,3.357-7.5,7.5s3.358,7.5,7.5,7.5H445.92c4.142,0,7.5-3.357,7.5-7.5
		S450.062,314.622,445.92,314.622z"></path>
	<path id="XMLID_116_" d="M453.42,351.191c0-4.143-3.358-7.5-7.5-7.5H117.099c-4.142,0-7.5,3.357-7.5,7.5s3.358,7.5,7.5,7.5H445.92
		C450.062,358.691,453.42,355.333,453.42,351.191z"></path>
	<path id="XMLID_117_" d="M387.61,372.761h-21.371c-4.142,0-7.5,3.357-7.5,7.5s3.358,7.5,7.5,7.5h21.371c4.142,0,7.5-3.357,7.5-7.5
		S391.752,372.761,387.61,372.761z"></path>
	<path id="XMLID_118_" d="M117.099,372.761c-4.142,0-7.5,3.357-7.5,7.5s3.358,7.5,7.5,7.5h219.514c4.142,0,7.5-3.357,7.5-7.5
		s-3.358-7.5-7.5-7.5H117.099z"></path>
	<path id="XMLID_119_" d="M346.613,169.803h107.494c9.649,0,17.5-7.851,17.5-17.5v-19.124c0-9.649-7.851-17.5-17.5-17.5H346.613
		c-9.649,0-17.5,7.851-17.5,17.5v19.124C329.113,161.953,336.963,169.803,346.613,169.803z M344.113,133.179
		c0-1.379,1.122-2.5,2.5-2.5h107.494c1.378,0,2.5,1.121,2.5,2.5v19.124c0,1.379-1.122,2.5-2.5,2.5H346.613
		c-1.378,0-2.5-1.121-2.5-2.5V133.179z"></path>
	<path id="XMLID_122_" d="M329.113,235.136c0,9.649,7.851,17.5,17.5,17.5h107.494c9.649,0,17.5-7.851,17.5-17.5v-40.979
		c0-9.649-7.851-17.5-17.5-17.5H346.613c-9.649,0-17.5,7.851-17.5,17.5V235.136z M344.113,194.158c0-1.379,1.122-2.5,2.5-2.5
		h107.494c1.378,0,2.5,1.121,2.5,2.5v40.979c0,1.379-1.122,2.5-2.5,2.5H346.613c-1.378,0-2.5-1.121-2.5-2.5V194.158z"></path>
</g>
<g>
</g>
<g>
</g>
<g>
</g>
<g>
</g>
<g>
</g>
<g>
</g>
<g>
</g>
<g>
</g>
<g>
</g>
<g>
</g>
<g>
</g>
<g>
</g>
<g>
</g>
<g>
</g>
<g>
</g>
</svg>